<?xml version="1.0" encoding="utf-8"?>
<!DOCTYPE svg PUBLIC "-//W3C//DTD SVG 1.0//EN" "http://www.w3.org/TR/2001/REC-SVG-20010904/DTD/svg10.dtd">
<svg version="1.0" xmlns="http://www.w3.org/2000/svg" width="842px" height="139px" viewBox="0 0 842 139" preserveAspectRatio="xMidYMid meet">
 <g fill="#000000">
  <path d="M118.3 136.9 c-10.4 -1.7 -21.2 -7.4 -26.8 -14.1 -1.6 -1.8 -4.2 -6.2 -5.9 -9.8 l-3.1 -6.5 -0.3 -33.5 c-0.5 -42.4 0.3 -46.2 10.6 -57.2 18.2 -19.5 57.6 -17.8 73.6 3.1 7.3 9.7 7.7 12.7 7.4 53.1 l-0.3 35.5 -2.7 5.7 c-8.4 17.9 -29.7 27.5 -52.5 23.7z m14.9 -30.6 c1.7 -1.5 1.8 -4 1.8 -36.5 0 -33.5 -0.1 -34.9 -2 -36.8 -2.9 -2.9 -7.4 -2.6 -10 0.7 -2 2.6 -2.1 3.4 -1.8 36.8 0.2 27.2 0.6 34.5 1.7 35.8 1.8 2.2 7.9 2.2 10.3 0z"/>
  <path d="M223.4 136.9 c-12.2 -1.2 -19.8 -4.4 -27.6 -11.7 -11.9 -11.1 -13 -16.5 -12.6 -59.1 0.3 -30.7 0.4 -32.9 2.5 -37.9 4.6 -11.3 12.6 -18.8 25 -23.5 5 -1.9 7.8 -2.2 19.8 -2.2 13.9 0 14.1 0 21.3 3.4 15.1 7.1 22.2 19.9 22.2 40.1 l0 8 -18 0 -18 0 0 -9.5 c0 -8.2 -0.3 -9.8 -2 -11.5 -2.8 -2.8 -9 -2.7 -11.6 0.1 -1.8 2 -1.9 4.1 -1.9 36.4 0 32.3 0.1 34.4 1.9 36.4 2.3 2.5 8.1 2.8 11.4 0.5 2 -1.4 2.2 -2.3 2.2 -11.5 l0 -9.9 18.1 0 18.2 0 -0.5 11.3 c-0.6 13.7 -2.9 20.4 -9.6 27.8 -5.3 5.9 -15.6 11.5 -23.1 12.4 -8.7 1.1 -10.6 1.1 -17.7 0.4z"/>
  <path d="M313 135.6 c-8.4 -2.4 -16 -6.8 -21.2 -12.5 -10 -11 -11 -16.5 -10.6 -58.1 0.3 -29.6 0.5 -31.8 2.5 -36.8 4.3 -10.6 12.3 -18.4 23.5 -23 7.5 -3 24 -4.2 32.8 -2.3 12.9 2.8 24.7 11.7 30 22.8 2.3 4.6 2.4 6.2 3.3 37.3 0.9 34.8 0.4 42.4 -3.4 50.6 -4.8 10.2 -15.7 18.6 -28.4 22 -6.2 1.7 -22.4 1.7 -28.5 0z m18.8 -29.2 l2.2 -1.5 0 -35.1 c0 -39.1 0.1 -38.8 -6.6 -38.8 -3.7 0 -6.1 1.9 -7 5.7 -0.4 1.5 -0.4 17.3 0 35.2 0.6 31.4 0.7 32.7 2.7 34.4 2.6 2.1 5.8 2.2 8.7 0.1z"/>
  <path d="M583.8 135.5 c-13.6 -2.8 -25.1 -11.6 -30.6 -23.3 l-2.7 -5.7 -0.3 -35.8 c-0.3 -40.9 -0.1 -42.5 7.1 -52.4 5.5 -7.3 12.5 -12 22.9 -15 24.6 -7.1 50.9 3.4 59 23.5 2.2 5.5 2.3 6.9 2.6 40.1 0.3 32.2 0.2 34.7 -1.7 41 -3.8 12.2 -13.4 21.6 -26.5 25.9 -8.6 2.8 -21.1 3.6 -29.8 1.7z m17.6 -30.7 c1.4 -1.9 1.6 -7.1 1.6 -35.9 0 -32.5 -0.1 -33.7 -2.1 -36.3 -2.5 -3.2 -7 -3.5 -9.9 -0.6 -1.9 1.9 -2 3.3 -2 36.7 0 39 -0.1 38.3 7.1 38.3 2.8 0 4.2 -0.6 5.3 -2.2z"/>
  <path d="M691 136 c-13.7 -1.4 -23.9 -6.5 -31.1 -15.4 -8.4 -10.3 -8.9 -13.2 -8.9 -52 0 -39.1 0.5 -41.8 8.7 -52 9 -11.2 22 -16.1 40.7 -15.4 10.1 0.3 11.8 0.7 18.4 3.8 5.2 2.4 8.7 4.9 12.2 8.7 6.9 7.5 9.2 14.1 9.8 28.1 l0.5 11.2 -17.6 0 -17.5 0 -0.4 -9.4 c-0.2 -7.5 -0.7 -9.8 -2.2 -11.5 -2.6 -2.8 -8.8 -2.9 -11.6 -0.1 -2 2 -2.1 3 -1.8 37.1 0.3 33.4 0.4 35.1 2.2 36.5 3.4 2.4 9.1 1.8 11.5 -1.2 1.8 -2.3 2.1 -4.1 2.1 -11.5 l0 -8.9 17.6 0 17.6 0 -0.4 11.3 c-0.6 13.6 -2.8 20.3 -9.5 27.7 -9.4 10.5 -22.6 14.8 -40.3 13z"/>
  <path d="M780 134.6 c-14.9 -4.2 -25.6 -14.1 -29.8 -27.6 -0.6 -2 -1.4 -17.3 -1.7 -35 -0.7 -34.7 0 -42 4.9 -50.5 3.9 -6.5 12.5 -13.8 20.3 -17.1 6.4 -2.7 7.7 -2.9 20.8 -2.9 13.2 0 14.4 0.2 21 3 9.4 3.9 19.1 13.4 22.6 22 2.4 5.9 2.4 6.4 2.4 42 0 35.4 0 36.1 -2.3 41.8 -4.6 11.3 -16 20.7 -29.3 24.2 -6.6 1.8 -22.7 1.8 -28.9 0.1z m19.6 -29.7 c1.8 -2 1.9 -4 1.7 -36.6 -0.1 -31.2 -0.3 -34.6 -1.9 -36.4 -2.3 -2.5 -7.6 -2.5 -9.8 0 -1.6 1.8 -1.8 4.9 -1.7 36.8 0.1 34 0.2 34.8 2.2 36.6 2.9 2.3 7.2 2.2 9.5 -0.4z"/>
  <path d="M1.5 99.8 c-0.3 -19.4 -0.5 -48.6 -0.3 -64.8 l0.3 -29.5 18.6 -0.3 18.6 -0.2 0.6 29.2 c0.4 16.1 0.7 38.4 0.7 49.6 l0 20.2 18.5 0 18.5 0 0 15.5 0 15.5 -37.4 0 -37.4 0 -0.7 -35.2z"/>
  <path d="M415 69.3 l0 -64.8 24.8 -0.3 24.8 -0.4 5.8 27.4 c3.2 15 6.3 29.5 6.8 32.1 0.5 2.7 1.2 4.6 1.4 4.4 0.3 -0.2 1.4 -5.1 2.5 -10.8 2.5 -13.2 9.9 -48.8 10.5 -51.1 0.5 -1.7 2.5 -1.8 24.5 -1.8 l23.9 0 0 65 0 65 -18.2 -0.2 -18.3 -0.3 -0.5 -35 c-0.3 -19.2 -0.8 -34.3 -1.1 -33.5 -0.3 0.8 -3.9 16.7 -7.9 35.3 l-7.4 33.7 -12.3 0 c-11.9 0 -12.3 -0.1 -12.8 -2.2 -0.3 -1.3 -3.5 -16.9 -7.1 -34.8 -3.6 -17.9 -6.8 -32.7 -7 -32.9 -0.5 -0.5 -0.7 10.1 -0.8 43.4 l-0.1 26 -15.7 0.3 -15.8 0.3 0 -64.8z"/>
 </g>
</svg>