<?xml version="1.0" encoding="utf-8"?>
<!DOCTYPE svg PUBLIC "-//W3C//DTD SVG 1.0//EN" "http://www.w3.org/TR/2001/REC-SVG-20010904/DTD/svg10.dtd">
<svg version="1.0" xmlns="http://www.w3.org/2000/svg" width="976px" height="749px" viewBox="0 0 976 749" preserveAspectRatio="xMidYMid meet">
 <g fill="#000000">
  <path d="M320 746.1 c-7.8 -0.6 -10.3 -1.2 -14.3 -3.5 -5.4 -3.2 -9.8 -8.1 -13 -14.6 -2.2 -4.4 -2.2 -5.2 -2.5 -52.5 -0.1 -26.4 -0.5 -48.1 -1 -48.2 -0.4 -0.1 -3.4 2.2 -6.7 5.1 -136.2 120.2 -129.6 114.8 -137.9 113.2 -4.1 -0.8 -9 -4.6 -11.1 -8.7 -2.3 -4.3 -1.9 -11 0.8 -15 1.2 -1.9 36.3 -33.4 77.8 -70 l75.5 -66.5 -6.8 -7.5 c-28.5 -31.1 -47.7 -73.7 -52.9 -117.3 -1.5 -12.7 -0.6 -46 1.5 -58.6 7.7 -44.5 26.6 -84.4 56 -118 4.5 -5.2 5.4 -6.7 4.3 -7.5 -0.7 -0.5 -13.9 -12 -29.2 -25.5 -15.2 -13.5 -28.3 -24.6 -29 -24.8 -0.8 -0.2 -3.2 0.6 -5.5 1.8 -10.6 5.4 -30 7.5 -45.7 5 -18.5 -3 -43.9 -14.2 -62.2 -27.3 -22.4 -16.2 -37.3 -34.3 -59.1 -72.2 -14.1 -24.5 -34.3 -66.6 -49.3 -102.5 -9.8 -23.5 -9.5 -22.6 -7 -25.1 l2.1 -2.1 20.4 5.5 c75.1 20.5 131.9 42.5 163.3 63.1 12.2 8.1 33.9 29.8 42.4 42.6 19 28.5 26.8 56.8 21.6 78.8 l-1.5 6.2 3.8 3.4 c2 1.9 16.3 14.4 31.6 28 l27.9 24.5 4.6 -3.4 c2.5 -1.9 9.9 -7 16.4 -11.2 11.6 -7.6 11.7 -7.7 9.9 -9.7 -1 -1.2 -8 -9 -15.5 -17.4 -9 -10 -13.7 -16 -13.7 -17.5 0 -1.3 5 -8.5 12.6 -18 11.9 -14.9 12.7 -15.8 15.7 -15.5 3.4 0.3 4 1.6 25.4 48.5 l4.1 9.1 10.8 -3.8 c6 -2 11 -4.2 11.1 -4.7 0.2 -0.5 -5.5 -16.5 -12.7 -35.5 -7.1 -18.9 -13 -35.5 -13 -36.7 0 -1.4 6.7 -10.8 18.1 -25.2 16.3 -20.6 18.4 -22.9 21.1 -22.9 2.3 0 3.1 0.6 4.2 3.2 0.7 1.8 5.9 26.9 11.6 55.8 5.6 28.9 10.6 52.9 11 53.3 0.4 0.4 4.9 0.5 10 0.1 l9.2 -0.7 -0.6 -3.6 c-0.8 -5.5 -11.3 -100.2 -13.2 -120.3 l-1.7 -17.7 4 -5.4 c6.4 -8.4 32.3 -39.6 36.8 -44.4 5.2 -5.4 9.6 -5.9 14 -1.6 7.3 7.3 40.7 48.3 41.8 51.5 0.6 1.6 -2.6 33.9 -9.8 101.3 -1.9 18.2 -3.8 34.6 -4.1 36.6 l-0.5 3.6 9.1 0.7 c5.1 0.4 9.4 0.6 9.6 0.3 0.3 -0.3 5.3 -25 11.3 -55 5.9 -30 11.3 -55.3 12 -56.1 2 -2.4 5.4 -1.9 8.3 1.2 5.4 5.7 34.8 43.8 34.8 45 0 0.7 -5.9 16.9 -13.1 36 -7.2 19.1 -13.2 35.3 -13.3 36 0 0.7 4.5 2.8 11 5.1 l11.2 3.9 12.2 -26.7 c6.7 -14.6 12.8 -27.6 13.6 -28.8 0.9 -1.5 2.4 -2.3 4.2 -2.3 2.4 0 4.5 2.2 15.1 15.7 6.8 8.6 12.6 16.4 12.8 17.3 0.5 2 -1 3.9 -17.9 22.6 -7.1 7.8 -12.8 14.6 -12.8 15 0.1 0.5 4.2 3.4 9.1 6.4 5 3 12.2 7.9 16 10.7 l7 5.3 31.9 -28.1 c30.6 -26.9 31.9 -28.2 30.9 -30.6 -0.5 -1.4 -1.4 -6 -2 -10.1 -2.9 -20.6 6.7 -49.5 24.9 -75.2 10 -14.2 27.5 -31.3 40.8 -40 12.4 -8.1 36.8 -20.4 55.8 -28 26.8 -10.8 77.8 -27.2 113.6 -36.5 12.7 -3.3 15.4 -3.3 16.7 0.1 1 2.7 -18.7 49 -36.6 85.9 -21.8 44.9 -42.8 78 -60.6 95.8 -22 22 -53.5 38.8 -82.1 43.8 -10.8 1.9 -29.4 0.7 -38.3 -2.5 -4.1 -1.4 -8.4 -3.2 -9.6 -4 -2 -1.3 -3.6 -0.1 -30.6 23.6 -15.6 13.7 -29 25.5 -29.7 26.2 -1.1 1.1 0.1 3.1 7.3 11.7 45.5 54.3 64.6 125.8 51 191.2 -3.3 16 -10.3 36.5 -17.2 50.5 -7.3 14.7 -20.9 35.1 -31.2 46.7 -7.4 8.4 -7.8 9.1 -6.3 10.6 0.9 0.9 20.8 18.5 44.1 39 90.3 79.7 104.6 92.5 106.8 95.8 7.8 11.5 -4.2 27.3 -17.7 23.2 -3.5 -1 -20.4 -15.3 -50 -42.1 -4.7 -4.3 -26.3 -23.4 -48 -42.5 l-39.5 -34.8 -0.5 47.9 c-0.5 46.6 -0.6 48 -2.7 52.6 -3.2 7.1 -10.3 14.1 -17.6 17.4 l-6.2 2.9 -165 0.1 c-90.7 0.1 -169.3 -0.1 -174.5 -0.5z m31.7 -25.8 c-3.2 -11.3 -3.4 -9.6 2.7 -25.6 l5.6 -14.9 -5.5 -14.8 c-3 -8.1 -5.5 -15.4 -5.5 -16.2 0 -0.8 2.5 -8.1 5.5 -16.1 l5.5 -14.6 -4.2 -11.6 -4.1 -11.5 -18.4 0 -18.4 0 0.3 55.8 0.3 55.7 2.7 4.7 c4.8 8 10.6 10.5 25.7 10.7 7.5 0.1 8.3 -0.1 7.8 -1.6z m61.2 0.5 c0 -0.7 -0.8 -3.3 -1.8 -5.7 l-1.8 -4.4 5.7 -15.5 5.7 -15.5 -2.7 -7.6 c-1.6 -4.2 -4.1 -11.1 -5.7 -15.5 l-3 -7.8 5.8 -15.5 5.8 -15.4 -4.2 -11.5 -4.1 -11.4 -18.3 0 c-10.1 0 -18.3 0.1 -18.3 0.3 0 0.1 2 5.2 4.4 11.3 l4.3 11.1 -5.8 15.5 -5.8 15.5 5.6 14.9 c3.1 8.2 5.6 15.6 5.5 16.4 0 0.8 -2.6 8.2 -5.6 16.3 l-5.5 14.8 2 5.5 2 5.4 18 0 c13.7 0 17.9 -0.3 17.8 -1.2z m61.1 0.5 c0 -0.5 -0.9 -3.1 -1.9 -5.8 l-1.9 -5 5.4 -14.4 c3 -7.9 5.4 -15.2 5.4 -16.1 0 -1 -2.4 -8.4 -5.4 -16.5 l-5.3 -14.8 2.9 -8.1 c1.7 -4.5 4.2 -11.4 5.7 -15.4 l2.6 -7.2 -3.9 -11.5 -4 -11.5 -18.4 0 -18.3 0 0.7 2.3 c0.3 1.2 2.2 6 4 10.6 1.9 4.7 3.4 9.1 3.4 9.9 0 0.8 -2.5 8.1 -5.5 16.2 l-5.5 14.8 5.5 14.7 c3 8.1 5.5 15.4 5.5 16.3 0 0.8 -2.5 8.1 -5.5 16.3 -5.9 16.2 -5.8 14.3 -2 24.7 0.3 0.9 5 1.2 18.5 1.2 9.9 0 18 -0.3 18 -0.7z m60.4 -1.5 c-0.3 -1.3 -1.2 -3.8 -2 -5.6 -1.3 -3.1 -1 -4.2 4.1 -18.3 3 -8.2 5.5 -15.6 5.5 -16.3 0 -0.7 -2.5 -8 -5.5 -16 l-5.4 -14.7 5.4 -14.8 c3 -8.2 5.5 -15.7 5.4 -16.7 0 -1.1 -1.7 -6.4 -3.8 -11.9 l-3.6 -10 -18.4 -0.3 c-14.5 -0.2 -18.2 0 -17.9 1 0.3 0.7 2.2 5.9 4.3 11.5 l3.8 10.3 -5.7 15.4 -5.8 15.5 5.6 14.9 c3.1 8.1 5.6 15.3 5.6 15.8 0 0.6 -2.5 7.9 -5.6 16.3 -5.6 15.5 -5.7 15.8 -2.8 22.8 l1.4 3.3 18.1 0 18 0 -0.7 -2.2z m61.6 1.8 c0 -0.2 -0.9 -2.8 -2 -5.8 l-2.1 -5.3 5.6 -14.8 c3 -8.1 5.5 -15.2 5.5 -15.8 0 -0.7 -2.5 -7.9 -5.5 -16.1 l-5.5 -15 5.6 -15.4 5.7 -15.4 -4 -11.2 -4 -11.3 -18.1 -0.3 c-10 -0.1 -18.2 0.1 -18.2 0.5 0 0.4 1.9 5.6 4.1 11.5 l4.2 10.7 -5.8 15.4 -5.7 15.4 5.7 15.6 5.7 15.6 -5.7 15.5 c-5.4 14.6 -5.6 15.7 -4.5 19.3 2.6 7.8 1.1 7.3 21 7.3 9.9 0 18 -0.2 18 -0.4z m55.6 -3.1 c3.1 -2 5.6 -4.5 7.1 -7.4 l2.3 -4.4 0 -55.9 0 -55.8 -20.5 0 c-11.3 0 -20.5 0.4 -20.5 0.9 0 0.4 1.8 5.6 4 11.4 l4 10.7 -5.7 15.2 -5.6 15.3 3.2 9 c1.8 5 4.4 12 5.7 15.7 l2.4 6.8 -5.5 15.1 c-3 8.3 -5.5 15.7 -5.5 16.4 0 0.8 0.9 3.4 2 6 l2 4.7 12.9 -0.4 c12.2 -0.3 13.1 -0.5 17.7 -3.3z m9.9 -150 c7.4 -2 16.4 -7.4 21.1 -12.8 5.9 -6.9 17.9 -25.5 23.2 -36.2 26.3 -52.7 25.2 -118.5 -3.1 -175 -6.6 -13.2 -12.1 -21.6 -23.2 -35.5 -36.5 -45.3 -85.3 -72.5 -142 -79 -6.8 -0.8 -25.1 -1 -55.5 -0.8 -49.3 0.5 -52.9 0.8 -76.6 7.2 -55.3 14.9 -106 56.8 -132.2 109.3 -6.5 12.9 -14.3 36.1 -17.9 52.8 -2.6 12.2 -2.7 14.5 -2.7 38.5 0 22.7 0.2 26.6 2.2 36 3.2 14.8 10.4 35.8 16.2 47.3 9.3 18.5 25.1 39.9 32.7 44.4 9.3 5.4 -0.2 5.2 182.3 5.2 149.2 0.1 170.3 -0.1 175.5 -1.4z m-454.7 -357.9 c5.8 -1.6 12.7 -5.3 15.5 -8.4 1.8 -1.9 0 -3.5 -96 -89 -53.8 -47.8 -98 -86.9 -98.1 -86.7 -2.3 2.2 29.7 70.7 44.7 95.9 20.7 34.6 35.1 51 58.1 66.5 17 11.4 34.2 19.1 49.1 22 7 1.4 20.9 1.2 26.7 -0.3z m562.4 -28.3 c4.9 -4.3 47 -41.5 93.7 -82.8 46.7 -41.2 84.8 -75.3 84.5 -75.7 -0.3 -0.4 -1.3 -0.3 -2.2 0.2 -0.9 0.5 -7.8 2.6 -15.2 4.6 -48 12.9 -98.8 33.4 -125.1 50.5 -16.5 10.8 -31.1 25.6 -44.1 44.8 -18 26.5 -22.8 54.1 -12.1 70.3 l2.6 3.8 4.6 -3.9 c2.5 -2.2 8.5 -7.5 13.3 -11.8z"/>
  <path d="M365.5 548 c-23 -2.5 -45.4 -14.3 -60 -31.8 -10.3 -12.3 -15.3 -21.9 -19.7 -38 -3 -10.9 -3 -32.4 0 -43.3 9.1 -33.4 32.9 -57.6 65.9 -67.1 10.5 -3.1 35 -3.3 45.8 -0.5 10.3 2.7 26.2 10.8 34.8 17.6 15.2 12 27.3 30.9 31.8 49.1 3.9 16.3 4.9 17 24.6 17 8.5 0 15.2 -0.5 16.7 -1.1 2.7 -1.2 5.6 -6.3 5.6 -9.7 0 -3.3 5 -18.1 8.2 -24.7 9.8 -19.6 28.5 -36.6 49 -44.5 12.3 -4.8 22.3 -6.3 37.2 -5.7 19.7 0.8 34.9 6.2 50.8 17.9 38.5 28.4 48.4 82.6 22.5 123.1 -4.8 7.5 -16.8 19.9 -24.4 25.3 -23.8 17.1 -56.8 21.5 -84.1 11.4 -19.8 -7.4 -38 -22.5 -47.8 -39.8 -5.1 -8.9 -2.2 -8.2 -33.9 -8.2 -32.2 0 -28.9 -1 -35.6 10.3 -5.2 8.9 -16.9 20.9 -26.9 27.6 -17.7 11.8 -39.7 17.3 -60.5 15.1z"/>
 </g>
</svg>